<svg fill="currentColor" id="Layer_1" xmlns="http://www.w3.org/2000/svg" version="1.1" viewBox="0 0 100 100">
  
  <defs>
    
  </defs>
  <path class="st0" d="M94,89.4c.6.6,1,1.4.9,2.3,0,1.8-1.4,3.2-3.2,3.3-.9,0-1.7-.3-2.3-1-.6-.6-.9-1.4-.9-2.3,0-1.8,1.4-3.3,3.2-3.3h0c.9,0,1.7.3,2.3,1ZM94.4,89.1c-.7-.7-1.7-1.1-2.7-1.1-2.1,0-3.8,1.7-3.8,3.8,0,2.1,1.7,3.8,3.8,3.8,1,0,2-.4,2.7-1.1,1.5-1.5,1.5-3.9,0-5.3,0,0,0,0,0,0h0ZM92.3,91.6c-.2,0-.5.1-.7,0h-.7v-1.5h.6c.4,0,.7,0,.9.2s.3.3.3.6c0,.3-.2.6-.4.7h0ZM90.2,93.8h.7v-1.6h.6c.4,0,.7,0,.8.1.3.2.4.5.4,1v.3h0c0,.1,0,.2,0,.2,0,0,0,0,0,0h.7,0c0-.1,0-.2,0-.3v-.6c0-.2,0-.5-.2-.7-.2-.2-.4-.4-.7-.4.2,0,.4,0,.6-.2.3-.2.4-.5.4-.8,0-.5-.2-.9-.6-1.1-.2-.1-.6-.2-1.1-.2h-1.5v4.1Z"></path>
  <path class="st0" d="M91.3,21.8c-.6,2.5-.9,5.2-1.5,7.8-7.5-1-16.3-1.7-26.2-2-.8,2.5-1.6,5-2.4,7.7,16.6,1,24.6,5.4,29.4,10.5,4.6,5.2,5.6,11,5.4,16.3-.6,8.7-4.4,14.2-9.7,18.2-5.3,4-11.7,6-16.9,6.4-7.6.6-17.7-1.2-19.9-2.6-1.3-3.1-2.7-6.1-4-9.2-.3-.7-.5-1.4.4-2.2,1.5-1.4,2.9-2.8,4.4-4.2.7-.6,1.4-1.2,1.9-.3,2,3.1,4,6,5.9,8.9,2.2,3.2,5.5,6.1,12.7,5.6,6.1-.5,10.7-5.1,11.2-10.2.5-9.4-8.9-16-33.6-18.1,4.7-14.3,9.3-28.1,13-39,5.9.3,11.3.8,16.4,1.4,3.8.5,7.4,1.4,10.9,1.8C71.5-2.9,40-6.2,18.5,11.2,6.8,20.7,0,34.9,0,50c0,10.7,3.4,21.1,9.7,29.6,2.1,0,3.6-.5,3.8-1.4.2-1,0-2.4-.1-3.9-1-9.8-1.4-20.4-1-31-2.3.1-4.7.2-7,.4.1-2,.2-3.8.4-5.8,2.2-.2,4.4-.4,7-.6.1-1.7.2-3.3.4-5,1.1-10.1,11.8-16.3,20.7-18.7,2.7-.7,5.5-1.2,8.2-1.4.7,0,1.4,0,2.2,0,1.8,0,3.7.2,4.9,1,1.9,1.4,3.8,2.9,5.8,4.5.2.3.4.7,0,1.4l-2.7,3.2c-.5.7-1.4.5-2.2.3-1.6-.8-3.1-1.6-4.7-2.3-2.8-1.3-5.7-2.5-8.9-2.4-2,.2-4,2.2-4.2,5-.3,4.3-.5,8.7-.6,13.5,5.6-.2,11.2-.3,17.1-.3v3.9c-1.9.9-3.7,1.7-5.7,2.6-4,0-7.8,0-11.6.2-.2,11,0,22,.5,33,.1,1.6.2,3.2.6,4.2.5,1.4,3.7,2.4,10.5,2.8v3.4c-10-.2-20.1-1.2-30.1-2.9,18.4,20.6,50,22.3,70.6,3.9,10.6-9.5,16.6-23,16.6-37.2,0-10.1-3-19.9-8.7-28.2h0Z"></path>
  <path class="st0" d="M12.8,83.3"></path>
</svg>