<svg fill="currentColor" version="1.1" id="Layer_1" xmlns="http://www.w3.org/2000/svg" xmlns:xlink="http://www.w3.org/1999/xlink" viewBox="-5.63 86.38 386.25 58.25" xml:space="preserve">
<path class="st0" d="M54.2,92.3h-9.6c-0.6,0-1.1,0.5-1.1,1.1v28.6L12.2,94.7C10.2,92.9,7.9,92,5.6,92C3.5,92,0,92.8,0,98.5v38.8&#xA;&#x9;c0,0.6,0.5,1.1,1.1,1.1h9.6c0.6,0,1.1-0.5,1.1-1.1v-28.7l31.6,27.7c1.9,1.7,3.9,2.5,6.1,2.5c2.2,0,5.8-0.9,5.8-6.8V93.3&#xA;&#x9;C55.2,92.7,54.8,92.3,54.2,92.3"></path>
<path class="st0" d="M113,92.3h-9.5c-0.6,0-1.1,0.5-1.1,1.1v30.8c0,2.5-3.2,3.8-9.4,3.8H80.3c-6.3,0-9.6-1.3-9.6-3.8V93.3&#xA;&#x9;c0-0.6-0.5-1.1-1.1-1.1h-9.6c-0.6,0-1.1,0.5-1.1,1.1v31.3c0,2.2,0.4,4,1.1,5.6c0.7,1.5,1.7,2.8,2.9,3.9c1.2,1,2.6,1.8,4.1,2.4&#xA;&#x9;c1.5,0.6,3.1,1,4.7,1.3c1.6,0.3,3.3,0.5,4.9,0.5c1.6,0.1,3.2,0.1,4.6,0.1h10.5c7.7,0,13.2-1.1,16.7-3.2c3.7-2.3,5.6-5.8,5.6-10.5&#xA;&#x9;V93.3C114.1,92.7,113.6,92.3,113,92.3"></path>
<path class="st0" d="M168.3,101.5v-8.2c0-0.6-0.5-1.1-1.1-1.1h-48.4c-0.6,0-1.1,0.5-1.1,1.1v8.2c0,0.6,0.5,1.1,1.1,1.1h18.3v34.8&#xA;&#x9;c0,0.6,0.5,1.1,1.1,1.1h9.6c0.6,0,1.1-0.5,1.1-1.1v-34.8h18.4C167.9,102.5,168.3,102.1,168.3,101.5"></path>
<path class="st0" d="M179.2,116.1l7.1-10.2l7.2,10.2H179.2z M192.9,95.4c-1.6-2.2-3.7-3.4-6.3-3.4c-2.5,0-4.6,1.2-6.2,3.4&#xA;&#x9;l-28.6,41.2c-0.2,0.3-0.3,0.7-0.1,1.1c0.2,0.3,0.5,0.6,0.9,0.6H164c0.4,0,0.7-0.2,0.9-0.5l7.4-11.4h28.4l7.6,11.4&#xA;&#x9;c0.2,0.3,0.5,0.5,0.9,0.5H220c0.4,0,0.7-0.2,0.9-0.6c0.2-0.3,0.2-0.8-0.1-1.1L192.9,95.4z"></path>
<path class="st0" d="M277.7,92.3h-9.6c-0.6,0-1.1,0.5-1.1,1.1v28.6l-31.3-27.3c-2.1-1.8-4.3-2.7-6.6-2.7c-2.1,0-5.6,0.8-5.6,6.5&#xA;&#x9;v38.8c0,0.6,0.5,1.1,1.1,1.1h9.6c0.6,0,1.1-0.5,1.1-1.1v-28.7l31.6,27.7c1.9,1.7,3.9,2.5,6.1,2.5c2.2,0,5.8-0.9,5.8-6.8V93.3&#xA;&#x9;C278.8,92.7,278.3,92.3,277.7,92.3"></path>
<path class="st0" d="M293.1,92.3h-9.6c-0.6,0-1.1,0.5-1.1,1.1v44c0,0.6,0.5,1.1,1.1,1.1h9.6c0.6,0,1.1-0.5,1.1-1.1v-44&#xA;&#x9;C294.2,92.7,293.7,92.3,293.1,92.3"></path>
<path class="st1" d="M365,136.6l-25.2-21.3L365,93.9c0.3-0.3,0.5-0.8,0.3-1.2c-0.2-0.4-0.5-0.7-1-0.7h-12.8c-0.2,0-0.5,0.1-0.7,0.2&#xA;&#x9;l-19.2,16.1l-19.3-16.1c-0.2-0.2-0.4-0.2-0.7-0.2h-12.8c-0.4,0-0.8,0.3-1,0.7c-0.2,0.4,0,0.9,0.3,1.2l25.2,21.4l-25.2,21.3&#xA;&#x9;c-0.3,0.3-0.5,0.8-0.3,1.2c0.2,0.4,0.5,0.7,1,0.7h13.4c0.3,0,0.5-0.1,0.7-0.3l18.6-16l18.7,16c0.2,0.2,0.4,0.3,0.7,0.3h13.3&#xA;&#x9;c0.4,0,0.8-0.3,1-0.7C365.5,137.3,365.4,136.8,365,136.6"></path>
<path class="st0" d="M370.7,135.2h0.4c0.5,0,0.8-0.2,0.8-0.5c0-0.3-0.2-0.6-0.8-0.6c-0.2,0-0.4,0-0.5,0V135.2z M370.7,137.2h-0.8&#xA;&#x9;v-3.6c0.3,0,0.8-0.1,1.4-0.1c0.7,0,1,0.1,1.2,0.3c0.2,0.2,0.4,0.4,0.4,0.8c0,0.4-0.3,0.7-0.8,0.9v0c0.4,0.1,0.5,0.4,0.6,0.9&#xA;&#x9;c0.1,0.6,0.2,0.8,0.3,0.9h-0.9c-0.1-0.1-0.2-0.4-0.3-0.9c-0.1-0.4-0.3-0.6-0.8-0.6h-0.4V137.2z M368.4,135.3c0,1.6,1.2,2.9,2.8,2.9&#xA;&#x9;c1.6,0,2.8-1.3,2.8-2.9c0-1.6-1.2-2.9-2.8-2.9C369.7,132.4,368.4,133.7,368.4,135.3 M375,135.3c0,2-1.6,3.7-3.7,3.7&#xA;&#x9;c-2.1,0-3.8-1.6-3.8-3.7s1.7-3.6,3.8-3.6C373.4,131.7,375,133.3,375,135.3"></path>
</svg>