<?xml version="1.0"?>

<svg version="1.0" id="katman_1" xmlns="http://www.w3.org/2000/svg" xmlns:xlink="http://www.w3.org/1999/xlink" x="0px" y="0px" viewBox="0 0 800 600" style="enable-background:new 0 0 800 600;" xml:space="preserve">

<g id="logo_DTK_teal_RVB">
&#x9;<g>
&#x9;&#x9;<defs>
&#x9;&#x9;&#x9;<rect id="SVGID_1_" x="102.9" y="165.8" width="593.8" height="267.5"></rect>
&#x9;&#x9;</defs>
&#x9;&#x9;<clipPath id="SVGID_00000166656382962427000770000008678865662499838354_">
&#x9;&#x9;&#x9;<use xlink:href="#SVGID_1_" style="overflow:visible;"></use>
&#x9;&#x9;</clipPath>
&#x9;&#x9;<g style="clip-path:url(#SVGID_00000166656382962427000770000008678865662499838354_);">
&#x9;&#x9;&#x9;<g>
&#x9;&#x9;&#x9;&#x9;<defs>
&#x9;&#x9;&#x9;&#x9;&#x9;<rect id="SVGID_00000006677325283432236500000000581155121388795826_" x="102.9" y="165.8" width="593.8" height="267.5"></rect>
&#x9;&#x9;&#x9;&#x9;</defs>
&#x9;&#x9;&#x9;&#x9;<clipPath id="SVGID_00000079455563556264249350000014557906491541841293_">
&#x9;&#x9;&#x9;&#x9;&#x9;<use xlink:href="#SVGID_00000006677325283432236500000000581155121388795826_" style="overflow:visible;"></use>
&#x9;&#x9;&#x9;&#x9;</clipPath>
&#x9;&#x9;&#x9;&#x9;<g style="clip-path:url(#SVGID_00000079455563556264249350000014557906491541841293_);">
&#x9;&#x9;&#x9;&#x9;&#x9;<path class="st2" d="M472.5,271.4h-0.3c-2.6,8.3-10.6,13.7-19.2,13c-20.6,0-28.7-17.1-28.7-47.2c0-39,13.7-45,27.1-45&#xA;&#x9;&#x9;&#x9;&#x9;&#x9;&#x9;c8.6-0.4,16.5,4.6,19.8,12.6h0.3v-39h17.8v116.4h-16.7V271.4z M456.5,206.2c-9.9,0-13.7,8.2-13.7,31.8&#xA;&#x9;&#x9;&#x9;&#x9;&#x9;&#x9;c0,19.8,2.6,32.4,14.9,32.4s14.9-12.4,14.9-31.1C472.5,218.3,470.1,206.2,456.5,206.2"></path>
&#x9;&#x9;&#x9;&#x9;&#x9;<path class="st2" d="M565.2,264c0,3.2,2,6.2,4.6,6.2c1,0,2-0.1,3-0.5V281c-2.7,1.3-5.7,2-8.7,2.1c-7.8,0-14.3-3.1-14.9-11.6&#xA;&#x9;&#x9;&#x9;&#x9;&#x9;&#x9;h-0.3c-4,8.3-12.6,13.4-21.8,12.9c-14,0-22.8-7.8-22.8-24.8c0-19.6,8.5-23.6,20.4-27.5l13.7-3.8c6.3-1.8,10.3-3.6,10.3-11.2&#xA;&#x9;&#x9;&#x9;&#x9;&#x9;&#x9;c0-7.7-2.7-13-12-13c-11.7,0-13.4,8.3-13.4,16.8h-16.6c0-18.6,7.7-28.9,30.8-28.9c15.5,0,27.9,6,27.9,21.5V264z M548.6,235.9&#xA;&#x9;&#x9;&#x9;&#x9;&#x9;&#x9;c-4.6,3.6-14.3,5.7-19.8,8.2c-5,2.9-7.8,8.4-7.1,14.2c0,7.3,3.6,13.2,10.9,13.2c10.6,0,15.8-8,15.8-20.8L548.6,235.9z"></path>
&#x9;&#x9;&#x9;&#x9;&#x9;<path class="st2" d="M576.9,194.5H589v-24.8h17.6v24.8H621v13.1h-14.4v52.3c0,6.9,1.9,9.3,8,9.3c2.1,0,4.3-0.1,6.4-0.5v13&#xA;&#x9;&#x9;&#x9;&#x9;&#x9;&#x9;c-4.7,1.1-9.4,1.6-14.2,1.5c-11.9,0-17.7-3.3-17.7-21.2v-54.5h-12.1V194.5z"></path>
&#x9;&#x9;&#x9;&#x9;&#x9;<path class="st2" d="M689.2,264c0,3.2,1.9,6.2,4.6,6.2c1,0,2-0.1,2.9-0.5V281c-2.7,1.3-5.6,2-8.6,2.1&#xA;&#x9;&#x9;&#x9;&#x9;&#x9;&#x9;c-7.8,0-14.4-3.1-14.9-11.6h-0.3c-4,8.3-12.6,13.4-21.8,12.9c-14,0-22.8-7.8-22.8-24.8c0-19.6,8.5-23.6,20.4-27.5l13.7-3.8&#xA;&#x9;&#x9;&#x9;&#x9;&#x9;&#x9;c6.3-1.8,10.3-3.6,10.3-11.2c0-7.7-2.8-13-12.1-13c-11.7,0-13.4,8.3-13.4,16.8h-16.6c0-18.6,7.6-28.9,30.8-28.9&#xA;&#x9;&#x9;&#x9;&#x9;&#x9;&#x9;c15.5,0,27.9,6,27.9,21.5V264z M672.5,235.9c-4.6,3.6-14.4,5.7-19.8,8.2c-5,2.9-7.8,8.4-7.2,14.2c0,7.3,3.6,13.2,10.9,13.2&#xA;&#x9;&#x9;&#x9;&#x9;&#x9;&#x9;c10.6,0,15.8-8,15.8-20.8L672.5,235.9z"></path>
&#x9;&#x9;&#x9;&#x9;&#x9;<path class="st2" d="M428.5,313.3H446V331h-17.6V313.3z M428.5,343.3H446V431h-17.6V343.3z"></path>
&#x9;&#x9;&#x9;&#x9;&#x9;<polygon class="st2" points="465.4,314.7 483,314.7 483,380 483.4,380 510,343.3 530.3,343.2 503.9,377.1 533.7,431 514.5,431 &#xA;&#x9;&#x9;&#x9;&#x9;&#x9;&#x9;493,391.1 483,403.2 483,431 465.4,431 &#x9;&#x9;&#x9;&#x9;&#x9;"></polygon>
&#x9;&#x9;&#x9;&#x9;&#x9;<path class="st2" d="M587.4,420.7h-0.5c-4.6,8-13.3,12.8-22.5,12.6c-13.1,0-21.8-6-21.8-28.7v-61.3h17.6v62.9&#xA;&#x9;&#x9;&#x9;&#x9;&#x9;&#x9;c0,9.9,4.4,13.1,11.9,13.1c7.6,0.4,14-5.5,14.4-13.1c0-0.6,0-1.2,0-1.7v-61.2H604V431h-16.6V420.7z"></path>
&#x9;&#x9;&#x9;&#x9;&#x9;<path class="st2" d="M236.6,165.8c-73.8,0-133.7,59.9-133.7,133.7s59.9,133.7,133.7,133.7s133.7-59.9,133.7-133.7&#xA;&#x9;&#x9;&#x9;&#x9;&#x9;&#x9;S310.5,165.8,236.6,165.8 M309.4,337h-67.2v-10.4h67.2V337z M301,239.5c0,0-4.6,6-2.1,22.2c4.6,30.4-11.4,57.4-39.6,57.4h-20.8&#xA;&#x9;&#x9;&#x9;&#x9;&#x9;&#x9;c0,0-20.4-1-32.7,11.2c-36.4,36.4-45.1,45.8-47.6,47.2c-1.7,0.9-2.1-1-2.1-1L263.6,244c-1.2-10.9,6.7-20.6,17.6-21.8&#xA;&#x9;&#x9;&#x9;&#x9;&#x9;&#x9;c7.6-0.8,15,2.8,19,9.3l9.9-2.8L301,239.5z"></path>
&#x9;&#x9;&#x9;&#x9;&#x9;<path class="st2" d="M283.4,232.7c-2.9-0.3-5.5,1.8-5.8,4.8s1.8,5.5,4.8,5.8c0.3,0,0.7,0,1,0c2.9-0.3,5-2.9,4.8-5.8&#xA;&#x9;&#x9;&#x9;&#x9;&#x9;&#x9;C287.9,234.9,285.9,232.9,283.4,232.7"></path>
&#x9;&#x9;&#x9;&#x9;</g>
&#x9;&#x9;&#x9;</g>
&#x9;&#x9;</g>
&#x9;</g>
</g>
</svg>