<svg xmlns="http://www.w3.org/2000/svg" viewBox="0 0 276 114" width="276" height="114" fill="none">
  <g transform="scale(0.0138888889)">
    <g transform="translate(0.000000,8208.000000) scale(0.900000,-0.900000)" fill="#FFFFFF" stroke="none">
<path d="M2809 6470 c-20 -5 -60 -19 -90 -30 -30 -12 -82 -31 -116 -41 -73&#xA;-23 -109 -60 -118 -122 -17 -117 0 -2262 18 -2290 39 -60 53 -62 382 -62 329&#xA;0 348 3 405 58 65 63 64 58 70 532 6 477 4 465 73 502 49 27 1005 27 1054 0&#xA;70 -38 67 -20 73 -537 7 -609 -30 -555 370 -555 292 0 298 1 408 68 107 64 97&#xA;-62 97 1247 0 1277 6 1177 -68 1217 -49 27 -685 27 -734 0 -69 -37 -67 -30&#xA;-73 -457 -7 -532 65 -475 -600 -475 -662 0 -593 -50 -600 440 -6 415 -13 441&#xA;-130 493 -41 19 -359 27 -421 12z"></path>
<path d="M6525 6140 c-44 -11 -100 -20 -125 -20 -118 0 -367 -88 -429 -151&#xA;-71 -70 -70 -270 2 -323 29 -22 43 -20 177 18 80 23 966 24 1054 1 233 -61&#xA;352 -206 302 -370 -26 -87 -97 -103 -228 -52 -128 50 -906 50 -1033 1 -44 -18&#xA;-113 -42 -152 -53 -62 -18 -83 -31 -139 -83 -113 -106 -109 -90 -109 -469 0&#xA;-326 0 -326 52 -430 77 -156 145 -209 266 -209 22 0 88 -17 146 -37 166 -59&#xA;1376 -59 1542 0 89 31 119 37 186 37 105 0 170 20 216 67 69 68 68 56 65 840&#xA;-3 700 -3 700 -60 814 -102 205 -259 341 -414 359 -47 5 -114 22 -164 42 -108&#xA;42 -995 56 -1155 18z m936 -1207 c73 -46 107 -157 78 -253 -5 -19 -14 -88 -18&#xA;-153 -12 -165 -33 -190 -173 -208 -38 -5 -105 -21 -149 -35 -79 -27 -79 -27&#xA;-159 0 -44 15 -116 31 -159 36 -194 22 -246 96 -239 338 4 176 43 227 215 283&#xA;93 30 552 24 604 -8z"></path>
<path d="M9621 6153 c-14 -3 -61 -19 -105 -36 -80 -30 -85 -30 -316 -37 -225&#xA;-6 -238 -8 -305 -34 -38 -15 -98 -36 -132 -47 -133 -42 -125 25 -121 -1004 3&#xA;-968 -8 -871 112 -982 91 -85 101 -88 361 -88 356 0 319 -97 325 845 6 849 -1&#xA;780 84 868 71 75 112 85 231 57 33 -8 74 -15 91 -15 54 0 129 -28 163 -62 69&#xA;-67 65 -24 71 -853 6 -834 1 -783 73 -822 49 -27 605 -27 654 0 72 39 67 -13&#xA;73 827 6 870 -5 786 114 897 158 148 369 84 484 -146 37 -75 37 -75 42 -791 6&#xA;-896 -31 -805 330 -805 247 1 261 3 368 68 105 63 97 -2 97 817 0 715 0 715&#xA;-31 785 -18 39 -37 95 -44 125 -20 85 -41 118 -141 217 -107 108 -148 130&#xA;-255 143 -44 5 -116 22 -162 39 -101 38 -137 38 -238 5 -78 -25 -78 -25 -165&#xA;-4 -86 22 -86 22 -162 -5 -42 -14 -111 -30 -154 -35 -101 -11 -124 -20 -209&#xA;-85 -142 -109 -203 -120 -288 -51 -117 96 -222 136 -356 136 -61 0 -94 7 -175&#xA;36 -100 36 -243 53 -314 37z"></path>
<path d="M13465 6153 c-11 -2 -65 -20 -121 -39 -79 -27 -117 -34 -175 -34&#xA;-218 0 -482 -149 -567 -319 -65 -132 -57 -529 15 -672 84 -170 141 -209 307&#xA;-209 68 0 97 -6 181 -37 100 -37 100 -37 565 -42 516 -7 511 -6 547 -74 48&#xA;-89 14 -198 -79 -254 -97 -59 -127 -65 -333 -73 -121 -4 -214 -13 -257 -24&#xA;-64 -15 -72 -15 -135 0 -44 11 -136 20 -258 24 -181 7 -194 8 -275 39 -185 70&#xA;-370 45 -370 -50 0 -35 64 -232 85 -263 39 -54 202 -126 288 -126 22 0 88 -17&#xA;146 -37 106 -38 106 -38 611 -38 505 0 505 0 611 38 86 30 120 37 180 37 171&#xA;0 311 68 472 227 138 137 132 116 132 453 0 338 7 313 -135 456 -150 151 -81&#xA;138 -780 144 -645 6 -626 4 -688 63 -89 85 -86 196 6 279 49 44 106 58 245 58&#xA;59 0 130 7 167 16 97 24 331 25 442 2 66 -14 134 -18 276 -18 140 0 202 -4&#xA;242 -16 127 -36 139 -38 164 -26 85 39 85 210 -1 296 -78 78 -362 186 -493&#xA;186 -25 0 -83 9 -130 20 -81 19 -813 29 -885 13z"></path>
<path d="M15835 6145 c-27 -7 -70 -22 -95 -33 -25 -10 -70 -25 -100 -32 -189&#xA;-43 -280 -129 -280 -265 0 -131 33 -164 148 -147 125 19 1061 16 1136 -3 233&#xA;-61 352 -206 302 -370 -26 -87 -97 -103 -228 -53 -102 40 -742 56 -884 23 -38&#xA;-9 -109 -20 -158 -25 -72 -7 -104 -16 -175 -50 -183 -88 -206 -112 -222 -242&#xA;-7 -55 -21 -106 -42 -153 -42 -92 -42 -139 2 -233 30 -66 34 -86 41 -201 12&#xA;-192 93 -305 253 -352 39 -11 108 -35 152 -53 106 -41 1211 -55 1383 -16 51&#xA;11 109 20 129 20 21 0 83 9 138 19 55 11 127 24 160 30 124 22 235 97 255 171&#xA;7 27 10 256 8 693 -3 654 -3 654 -93 837 -55 111 -104 197 -125 219 -67 68&#xA;-254 151 -344 151 -23 0 -86 17 -141 37 -111 41 -1091 64 -1220 28z m1052&#xA;-1208 c66 -35 68 -46 68 -298 0 -287 -7 -300 -164 -320 -37 -4 -104 -22 -150&#xA;-38 -102 -38 -141 -39 -239 -2 -42 16 -109 38 -147 50 -135 39 -167 93 -173&#xA;282 -7 218 32 301 155 335 79 22 608 15 650 -9z"></path>
</g>
  </g>
  <circle cx="230.5" cy="72.5" r="9.8" fill="#98DB03"></circle>
</svg>