<svg version="1.1" id="Layer_1" xmlns:x="ns_extend;" xmlns:i="ns_ai;" xmlns:graph="ns_graphs;" xmlns="http://www.w3.org/2000/svg" xmlns:xlink="http://www.w3.org/1999/xlink" x="0px" y="0px" viewBox="0 0 326 88" style="enable-background:new 0 0 326 88;" xml:space="preserve">
 
 <metadata>
  <sfw xmlns="ns_sfw;">
   <slices>
   </slices>
   <sliceSourceBounds bottomLeftOrigin="true" height="88" width="326" x="-177.8" y="0">
   </sliceSourceBounds>
  </sfw>
 </metadata>
 <g>
  <path class="st0" d="M13.4,0H6.7H0v13.5h13.4V0z M325.9,74.5h-6.7h-6.7V88h13.4V74.5z">
  </path>
  <path class="st0" d="M13.4,68.2H0V19.8h6.7h6.7V68.2z M75,18.8c9.9,0,15.8,6.9,15.8,17.9v31.5H77.5V39.4c0-5.2-2.3-8.6-6.9-8.6&#xA;&#x9;&#x9;c-3.5,0-6.6,2.2-7.4,6.3v31.2H49.7V39.4c0-5.2-2.2-8.6-6.8-8.6c-3.5,0-6.7,2.2-7.5,6.3v31.2H22.1V19.8h13.4v4&#xA;&#x9;&#x9;c2.4-3,6.8-5.1,12.1-5.1c5.7,0,10.3,2.6,12.9,6.2C63.6,21.4,68.2,18.8,75,18.8z M112.8,88H99.4V19.8h13.4v4c2.2-2.6,6.9-5.1,12-5.1&#xA;&#x9;&#x9;c14,0,21.9,11.7,21.9,25.3s-8,25.2-21.9,25.2c-5.2,0-9.9-2.5-12-5.1V88z M112.8,52c1.6,3.3,5.2,5.6,9,5.6c7.2,0,11.5-5.9,11.5-13.5&#xA;&#x9;&#x9;c0-7.8-4.3-13.6-11.5-13.6c-4,0-7.4,2.4-9,5.6V52z M164.6,47.1c1,7.9,6.8,11.2,13.8,11.2c5.3,0,9-1.2,13.7-4.3v11.1&#xA;&#x9;&#x9;c-4,2.9-9.3,4.3-15.8,4.3c-14.6,0-24.7-9.6-24.7-24.9c0-15.2,9.5-25.7,22.6-25.7c14,0,21.2,9.8,21.2,24.1v4.4L164.6,47.1&#xA;&#x9;&#x9;L164.6,47.1z M165.1,38.4h18.2c-0.3-5.2-3.2-8.9-8.5-8.9C170.4,29.5,166.6,32.3,165.1,38.4z M231.9,33.1c-1.8-1-4.2-1.6-6.7-1.6&#xA;&#x9;&#x9;c-4.5,0-8.2,2.4-9.1,6.8v29.9h-13.4V19.8h13.4v4.7c2.1-3.5,6-5.9,10.7-5.9c2.3,0,4.3,0.5,5.1,0.9V33.1z M252.7,68.2l-18.2-48.4&#xA;&#x9;&#x9;h13.9l11.1,32.1l10.8-32.1h13.5l-18.3,48.4H252.7z M312.7,38c0-4.6-4-7.6-10.7-7.6c-4.8,0-9.3,1.4-13.1,3.9V22.7&#xA;&#x9;&#x9;c3.5-2.2,9.7-4,16-4c13.3,0,21.2,6.8,21.2,18.7v30.8h-13.4v-2.6c-1.6,1.6-6.3,3.5-11.6,3.5c-9.7,0-17.8-5.6-17.8-15.7&#xA;&#x9;&#x9;c0-9.2,8.1-15.4,18.6-15.4c4.2,0,8.8,1.4,10.7,2.8V38z M312.7,51.5c-1.2-2.6-4.7-4.3-8.5-4.3c-4.2,0-8.5,1.8-8.5,6&#xA;&#x9;&#x9;c0,4.3,4.3,6,8.5,6c3.8,0,7.3-1.6,8.5-4.3V51.5z">
  </path>
 </g>
</svg>