<svg viewBox="0 0 465 113" xmlns="http://www.w3.org/2000/svg" xml:space="preserve" style="fill-rule:evenodd;clip-rule:evenodd;stroke-linejoin:round;stroke-miterlimit:2"><path d="M580.125 326.654h9.063v-26.887h.192c2.798 4.51 7.715 7.875 16.39 7.875 14.849 0 21.12-13.062 21.12-26.505 0-13.153-6.946-24.774-21.215-24.774-8.677 0-14.269 4.418-16.681 8.068h-.192v-6.915h-8.677v69.138Zm216.443-69.138h-13.019v-14.209l-9.062 2.881v11.328H763.4v7.297h11.087v28.617c0 9.794 5.786 14.212 15.135 14.212 2.898 0 5.694-.769 7.718-1.344v-7.686c-1.349.866-3.378 1.731-6.17 1.731-4.145 0-7.621-3.075-7.621-8.74v-26.79h13.019v-7.297Zm8.379 11.139c3.665-3.074 9.16-4.993 14.266-4.993 9.068 0 12.15 4.321 12.15 12.771-3.568-.193-6.072-.193-9.64-.193-9.349 0-22.849 3.843-22.849 16.131 0 10.659 7.423 15.27 18.029 15.27 8.29 0 13.115-4.515 15.232-7.492h.194v6.337h8.485c-.194-1.441-.388-4.032-.388-9.6v-20.26c0-13.348-5.685-20.263-19.761-20.263-6.272 0-11.67 1.921-16.199 4.611l.481 7.681Zm-77.605 0c3.665-3.074 9.16-4.993 14.271-4.993 9.063 0 12.146 4.321 12.146 12.771-3.563-.193-6.068-.193-9.641-.193-9.349 0-22.848 3.843-22.848 16.131 0 10.659 7.422 15.27 18.028 15.27 8.296 0 13.116-4.515 15.233-7.492h.194v6.337h8.485c-.194-1.441-.384-4.032-.384-9.6v-20.26c0-13.348-5.689-20.263-19.766-20.263-6.271 0-11.669 1.921-16.198 4.611l.48 7.681Zm-64.118 37.832h9.063v-48.971h-9.063v48.971Zm-176.134 0h9.063v-48.971h-9.063v48.971Zm236.384-48.971h-9.063l-13.596 39.946h-.189l-13.31-39.946h-9.928l17.646 48.971h10.795l17.645-48.971Zm-220.486 48.971h9.063v-24.678c0-9.121 3.664-18.146 12.921-18.146 7.328 0 8.774 7.584 8.774 13.636v29.188h9.063v-24.678c0-9.121 3.665-18.146 12.919-18.146 7.33 0 8.776 7.584 8.776 13.636v29.188h9.063V275.09c0-10.659-4.529-18.726-17.067-18.726-4.432 0-11.859 2.498-15.232 9.508-2.605-6.628-8.291-9.508-13.983-9.508-7.23 0-12.147 2.595-15.618 8.258h-.194v-7.106h-8.485v48.971Zm128.329 0h9.063v-22.275c0-12.293 5.305-19.974 13.403-19.974 1.543 0 3.378.193 5.013.865v-8.068c-1.927-.382-3.276-.671-5.975-.671-5.208 0-10.412 3.649-12.825 8.739h-.194v-7.587h-8.485v48.971Zm122.442-19.013c0 7.299-4.723 12.868-13.689 12.868-4.145 0-9.16-2.784-9.16-7.971 0-8.639 12.15-9.407 17.068-9.407 1.927 0 3.858.193 5.781.193v4.317Zm77.604 0c0 7.299-4.723 12.868-13.689 12.868-4.15 0-9.159-2.784-9.159-7.971 0-8.639 12.15-9.407 17.067-9.407 1.927 0 3.854.193 5.781.193v4.317Zm-214.118-5.665c.194 7.681-3.854 18.533-13.596 18.533-10.218 0-14.461-10.083-14.461-18.243 0-9.122 4.723-18.437 14.558-18.437 9.834 0 13.693 9.315 13.499 18.147Zm232.304-14.682c3.762 0 6.825-3.051 6.825-6.802 0-3.748-3.063-6.802-6.825-6.802-3.767 0-6.831 3.054-6.831 6.802 0 3.751 3.064 6.802 6.831 6.802Zm0-1.318c-2.857 0-5.167-2.299-5.167-5.484s2.31-5.481 5.167-5.481c2.856 0 5.162 2.296 5.162 5.481s-2.306 5.484-5.162 5.484Zm-2.635-1.659h1.442v-3.314h.869l2.006 3.314h1.474l-2.08-3.374c1.267-.11 2.025-.75 2.025-2.071 0-1.62-1.003-2.26-2.857-2.26h-2.879v7.705Zm1.442-6.614h1.285c.735 0 1.571.152 1.571 1.057 0 1.035-.739 1.148-1.59 1.148h-1.266v-2.205Zm-175.487-21.145h-10.222v10.178h10.222v-10.178Zm-176.139 0h-10.218v10.178h10.218v-10.178ZM391.85 236.049v70.391h70.469v-70.391H391.85Zm44.535 6.471v57.22h-18.609v-17.461h.007v-9.798h-.007v-2.472h.007v-9.798h-.007V242.52h18.609Zm-18.609-28.061h18.609v14.539h-18.609v-14.539Z" style="fill:#ce202f;fill-rule:nonzero" transform="translate(-391.85 -214.459)"></path></svg>